<svg viewBox="0 0 600 400" xmlns="http://www.w3.org/2000/svg">
<g transform="translate(48, 364)">
<g>
<path d="M0,-340 L0,-340 L0.5205205,-339.89832 L1.041041,-339.7944 L1.5615616,-339.6892 L2.082082,-339.58313 L2.6026027,-339.47644 L3.1231232,-339.3693 L3.6436436,-339.26187 L4.164164,-339.15424 L4.6846848,-339.04645 L5.2052054,-338.93857 L5.7257257,-338.83063 L6.2462463,-338.7227 L6.7667665,-338.61478 L7.287287,-338.5069 L7.807808,-338.39908 L8.328328,-338.29135 L8.848849,-338.18372 L9.3693695,-338.07617 L9.88989,-337.96878 L10.410411,-337.8615 L10.930931,-337.75436 L11.451451,-337.6474 L11.9719715,-337.54056 L12.492493,-337.4339 L13.013013,-337.3274 L13.533533,-337.22104 L14.054054,-337.1149 L14.574574,-337.0089 L15.095095,-336.90308 L15.615616,-336.79745 L16.136137,-336.69202 L16.656656,-336.58676 L17.177177,-336.4817 L17.697699,-336.3768 L18.218218,-336.2721 L18.738739,-336.1676 L19.25926,-336.0633 L19.77978,-335.9592 L20.3003,-335.85526 L20.820822,-335.75153 L21.341341,-335.648 L21.861862,-335.54468 L22.382381,-335.44153 L22.902903,-335.3386 L23.423424,-335.23584 L23.943943,-335.1333 L24.464464,-335.03094 L24.984985,-334.9288 L25.505505,-334.82684 L26.026026,-334.7251 L26.546547,-334.62354 L27.067066,-334.5222 L27.587587,-334.42102 L28.108109,-334.32004 L28.628628,-334.2193 L29.149149,-334.1187 L29.66967,-334.01837 L30.19019,-333.91818 L30.71071,-333.81824 L31.231232,-333.71844 L31.75175,-333.61887 L32.272274,-333.5195 L32.792793,-333.42032 L33.313313,-333.32135 L33.833836,-333.22256 L34.354355,-333.124 L34.874874,-333.0256 L35.395397,-332.92743 L35.915916,-332.82947 L36.436436,-332.73166 L36.95696,-332.6341 L37.477478,-332.53668 L37.997997,-332.4395 L38.51852,-332.3425 L39.03904,-332.24573 L39.55956,-332.1491 L40.080082,-332.0527 L40.6006,-331.9565 L41.12112,-331.8605 L41.641644,-331.7647 L42.162163,-331.6691 L42.682682,-331.5737 L43.203205,-331.4785 L43.723724,-331.38348 L44.244244,-331.28867 L44.764763,-331.19406 L45.285286,-331.09964 L45.805805,-331.0054 L46.326324,-330.9114 L46.846848,-330.81757 L47.367367,-330.72394 L47.887886,-330.63052 L48.40841,-330.5373 L48.92893,-330.44424 L49.449448,-330.3514 L49.96997,-330.2588 L50.49049,-330.16635 L51.01101,-330.07413 L51.531532,-329.9821 L52.05205,-329.89023 L52.57257,-329.79858 L53.093094,-329.70715 L53.613613,-329.6159 L54.134132,-329.52484 L54.654655,-329.434 L55.175175,-329.34335 L55.695694,-329.2529 L56.216217,-329.16263 L56.736736,-329.07257 L57.257256,-328.98273 L57.77778,-328.89307 L58.298298,-328.80362 L58.818817,-328.71436 L59.33934,-328.62527 L59.85986,-328.5364 L60.38038,-328.44775 L60.9009,-328.35928 L61.42142,-328.27103 L61.94194,-328.18295 L62.462463,-328.0951 L62.982983,-328.00742 L63.5035,-327.91995 L64.024025,-327.8327 L64.54455,-327.74564 L65.06506,-327.65875 L65.58559,-327.57208 L66.10611,-327.48563 L66.626625,-327.39935 L67.14715,-327.3133 L67.66767,-327.22745 L68.18819,-327.14178 L68.70871,-327.0563 L69.22923,-326.97107 L69.74975,-326.88602 L70.27027,-326.80115 L70.790794,-326.71652 L71.31131,-326.63208 L71.83183,-326.54782 L72.352356,-326.4638 L72.87287,-326.37997 L73.393394,-326.29636 L73.91392,-326.21295 L74.43443,-326.12973 L74.954956,-326.04675 L75.47548,-325.96396 L75.995995,-325.88138 L76.51652,-325.799 L77.03704,-325.71686 L77.557556,-325.63495 L78.07808,-325.55322 L78.5986,-325.4717 L79.11912,-325.39044 L79.63964,-325.3094 L80.160164,-325.22855 L80.68068,-325.14795 L81.2012,-325.06757 L81.721725,-324.98743 L82.24224,-324.9075 L82.762764,-324.82782 L83.28329,-324.74838 L83.8038,-324.66916 L84.324326,-324.59018 L84.84485,-324.51147 L85.365364,-324.43298 L85.88589,-324.35474 L86.40641,-324.27673 L86.926926,-324.19894 L87.44745,-324.12143 L87.967964,-324.04416 L88.48849,-323.9671 L89.00901,-323.89032 L89.529526,-323.81375 L90.05005,-323.73746 L90.57057,-323.66138 L91.09109,-323.58554 L91.61161,-323.50998 L92.13213,-323.43463 L92.65265,-323.35953 L93.17317,-323.28467 L93.693695,-323.21005 L94.21421,-323.13568 L94.73473,-323.06152 L95.25526,-322.9876 L95.77577,-322.91394 L96.296295,-322.84048 L96.81682,-322.76724 L97.33733,-322.69424 L97.85786,-322.62143 L98.37838,-322.54886 L98.898895,-322.4765 L99.41942,-322.40436 L99.93994,-322.3324 L100.46046,-322.26065 L100.98098,-322.18912 L101.5015,-322.11777 L102.02202,-322.0466 L102.54254,-321.97565 L103.063065,-321.9049 L103.58358,-321.83435 L104.1041,-321.76395 L104.624626,-321.6938 L105.14514,-321.62378 L105.665665,-321.55396 L106.18619,-321.4843 L106.7067,-321.41486 L107.22723,-321.3456 L107.74775,-321.27652 L108.268265,-321.20758 L108.78879,-321.13885 L109.30931,-321.07028 L109.82983,-321.00192 L110.35035,-320.9337 L110.87087,-320.86566 L111.39139,-320.7978 L111.91191,-320.73007 L112.432434,-320.66257 L112.95295,-320.59518 L113.47347,-320.52798 L113.993996,-320.46097 L114.51451,-320.3941 L115.035034,-320.3274 L115.55556,-320.26086 L116.07607,-320.1945 L116.596596,-320.1283 L117.11712,-320.06226 L117.637634,-319.99637 L118.15816,-319.93063 L118.67868,-319.86508 L119.199196,-319.79968 L119.71972,-319.73444 L120.24024,-319.66934 L120.76076,-319.60443 L121.28128,-319.53967 L121.8018,-319.47504 L122.32232,-319.41058 L122.84284,-319.34628 L123.363365,-319.28214 L123.88388,-319.21817 L124.4044,-319.15433 L124.92493,-319.09064 L125.44544,-319.02713 L125.965965,-318.96375 L126.48649,-318.9005 L127.007,-318.83746 L127.52753,-318.77454 L128.04805,-318.71176 L128.56857,-318.64917 L129.0891,-318.5867 L129.6096,-318.52438 L130.13013,-318.46222 L130.65065,-318.4002 L131.17117,-318.33832 L131.6917,-318.2766 L132.21222,-318.21503 L132.73273,-318.1536 L133.25325,-318.09232 L133.77377,-318.0312 L134.2943,-317.97018 L134.81482,-317.90933 L135.33534,-317.84863 L135.85585,-317.78806 L136.37637,-317.72763 L136.8969,-317.66736 L137.41742,-317.6072 L137.93794,-317.5472 L138.45847,-317.48734 L138.97897,-317.42758 L139.4995,-317.368 L140.02002,-317.30853 L140.54054,-317.2492 L141.06107,-317.19 L141.58159,-317.13095 L142.1021,-317.07202 L142.62262,-317.0132 L143.14314,-316.95453 L143.66367,-316.89597 L144.18419,-316.83755 L144.70471,-316.77924 L145.22522,-316.72104 L145.74574,-316.663 L146.26627,-316.60504 L146.78679,-316.54718 L147.30731,-316.48947 L147.82784,-316.43185 L148.34834,-316.37436 L148.86887,-316.31696 L149.38939,-316.25964 L149.90991,-316.20245 L150.43044,-316.14536 L150.95096,-316.08835 L151.47147,-316.03143 L151.99199,-315.9746 L152.51251,-315.91785 L153.03304,-315.8612 L153.55356,-315.8046 L154.07408,-315.74808 L154.59459,-315.69165 L155.11511,-315.63525 L155.63564,-315.57895 L156.15616,-315.52267 L156.67668,-315.46643 L157.1972,-315.41025 L157.71771,-315.35413 L158.23824,-315.298 L158.75876,-315.2419 L159.27928,-315.18585 L159.7998,-315.1298 L160.32033,-315.07373 L160.84084,-315.01767 L161.36136,-314.96158 L161.88188,-314.9055 L162.4024,-314.84933 L162.92293,-314.79318 L163.44345,-314.73697 L163.96396,-314.68066 L164.48448,-314.62433 L165.005,-314.5679 L165.52553,-314.51138 L166.04605,-314.45474 L166.56657,-314.398 L167.08708,-314.34113 L167.6076,-314.28412 L168.12813,-314.22696 L168.64865,-314.16965 L169.16917,-314.11218 L169.6897,-314.0545 L170.2102,-313.99664 L170.73073,-313.93857 L171.25125,-313.8803 L171.77177,-313.82184 L172.2923,-313.76315 L172.81282,-313.70425 L173.33333,-313.64514 L173.85385,-313.58585 L174.37437,-313.52637 L174.8949,-313.46674 L175.41542,-313.40695 L175.93593,-313.3471 L176.45645,-313.2872 L176.97697,-313.22733 L177.4975,-313.16754 L178.01802,-313.10794 L178.53854,-313.04858 L179.05905,-312.9896 L179.57957,-312.93103 L180.1001,-312.87296 L180.62062,-312.81537 L181.14114,-312.7582 L181.66167,-312.7012 L182.18217,-312.64392 L182.7027,-312.58548 L183.22322,-312.52448 L183.74374,-312.45868 L184.26427,-312.3848 L184.78479,-312.2979 L185.3053,-312.1913 L185.82582,-312.05594 L186.34634,-311.88028 L186.86687,-311.65073 L187.38739,-311.35248 L187.90791,-310.9712 L188.42842,-310.49533 L188.94894,-309.91855 L189.46947,-309.24103 L189.98999,-308.4694 L190.51051,-307.6148 L191.03104,-306.69055 L191.55154,-305.70947 L192.07207,-304.6828 L192.59259,-303.6197 L193.11311,-302.5272 L193.63364,-301.41068 L194.15416,-300.27402 L194.67467,-299.1202 L195.19519,-297.95132 L195.71571,-296.769 L196.23624,-295.57452 L196.75676,-294.3688 L197.27728,-293.1527 L197.79779,-291.92694 L198.31831,-290.69223 L198.83884,-289.44913 L199.35936,-288.19827 L199.87988,-286.9403 L200.4004,-285.67578 L200.92091,-284.40533 L201.44144,-283.12952 L201.96196,-281.849 L202.48248,-280.56433 L203.003,-279.27612 L203.52353,-277.98502 L204.04404,-276.6916 L204.56456,-275.3964 L205.08508,-274.10007 L205.6056,-272.80316 L206.12613,-271.50626 L206.64665,-270.2099 L207.16716,-268.9146 L207.68768,-267.6209 L208.2082,-266.32935 L208.72873,-265.0404 L209.24925,-263.75455 L209.76978,-262.47226 L210.29028,-261.19397 L210.8108,-259.92007 L211.33133,-258.651 L211.85185,-257.38715 L212.37238,-256.12888 L212.8929,-254.87653 L213.4134,-253.63043 L213.93393,-252.3909 L214.45445,-251.1582 L214.97498,-249.93263 L215.4955,-248.71443 L216.01602,-247.50383 L216.53653,-246.30107 L217.05705,-245.10632 L217.57758,-243.91977 L218.0981,-242.7416 L218.61862,-241.57193 L219.13914,-240.41092 L219.65965,-239.25868 L220.18018,-238.11531 L220.7007,-236.9809 L221.22122,-235.85551 L221.74174,-234.73923 L222.26227,-233.63208 L222.78278,-232.53413 L223.3033,-231.44537 L223.82382,-230.36583 L224.34435,-229.29552 L224.86487,-228.23439 L225.38539,-227.18248 L225.9059,-226.13971 L226.42642,-225.10608 L226.94695,-224.08153 L227.46747,-223.066 L227.98799,-222.05943 L228.50851,-221.06177 L229.02902,-220.07294 L229.54955,-219.09285 L230.07007,-218.12143 L230.59059,-217.1586 L231.11111,-216.20424 L231.63164,-215.25829 L232.15215,-214.3206 L232.67267,-213.3911 L233.19319,-212.46967 L233.71371,-211.5562 L234.23424,-210.65057 L234.75476,-209.75269 L235.27527,-208.86241 L235.79579,-207.97966 L236.31631,-207.1043 L236.83684,-206.2362 L237.35736,-205.37529 L237.87788,-204.52141 L238.39839,-203.67447 L238.91891,-202.83435 L239.43944,-202.00092 L239.95996,-201.17404 L240.48048,-200.35364 L241.001,-199.53955 L241.52151,-198.73166 L242.04204,-197.92986 L242.56256,-197.13399 L243.08308,-196.34393 L243.6036,-195.55957 L244.12413,-194.78076 L244.64464,-194.00737 L245.16516,-193.23926 L245.68568,-192.47629 L246.2062,-191.71834 L246.72673,-190.96523 L247.24725,-190.21686 L247.76776,-189.47307 L248.28828,-188.7337 L248.8088,-187.99864 L249.32933,-187.26775 L249.84985,-186.54086 L250.37038,-185.81784 L250.89088,-185.09857 L251.4114,-184.38289 L251.93193,-183.67068 L252.45245,-182.96182 L252.97298,-182.25616 L253.4935,-181.5536 L254.014,-180.854 L254.53453,-180.15726 L255.05505,-179.46326 L255.57558,-178.77188 L256.0961,-178.08305 L256.6166,-177.39667 L257.13715,-176.71262 L257.65765,-176.0308 L258.1782,-175.35118 L258.6987,-174.67365 L259.2192,-173.99811 L259.73975,-173.32452 L260.26025,-172.65279 L260.7808,-171.98286 L261.3013,-171.31465 L261.8218,-170.64812 L262.34235,-169.98318 L262.86285,-169.31981 L263.3834,-168.65791 L263.9039,-167.99745 L264.42444,-167.3384 L264.94495,-166.68065 L265.46545,-166.0242 L265.986,-165.36899 L266.5065,-164.71497 L267.02704,-164.06209 L267.54755,-163.4103 L268.06805,-162.75957 L268.5886,-162.10985 L269.1091,-161.46109 L269.62964,-160.81326 L270.15015,-160.16632 L270.6707,-159.52022 L271.1912,-158.87494 L271.7117,-158.23041 L272.23224,-157.58661 L272.75275,-156.94351 L273.2733,-156.30107 L273.7938,-155.65926 L274.3143,-155.01802 L274.83484,-154.37735 L275.35535,-153.73721 L275.8759,-153.09756 L276.3964,-152.4584 L276.91693,-151.81967 L277.43744,-151.18138 L277.95795,-150.54347 L278.4785,-149.90596 L278.999,-149.26881 L279.51953,-148.63202 L280.04004,-147.99556 L280.56055,-147.35942 L281.0811,-146.7236 L281.6016,-146.08809 L282.12213,-145.45287 L282.64264,-144.81796 L283.16318,-144.18333 L283.6837,-143.54901 L284.2042,-142.91498 L284.72473,-142.28123 L285.24524,-141.64778 L285.76578,-141.01465 L286.2863,-140.38182 L286.8068,-139.7493 L287.32733,-139.11711 L287.84784,-138.48526 L288.36838,-137.85374 L288.8889,-137.2226 L289.40942,-136.59183 L289.92993,-135.96143 L290.45044,-135.33144 L290.97098,-134.70186 L291.4915,-134.07272 L292.01202,-133.44403 L292.53253,-132.81581 L293.05304,-132.18808 L293.57358,-131.56087 L294.0941,-130.93419 L294.61462,-130.30806 L295.13513,-129.68251 L295.65567,-129.05756 L296.17618,-128.43323 L296.6967,-127.80955 L297.21722,-127.18654 L297.73773,-126.564224 L298.25827,-125.94264 L298.77878,-125.3218 L299.2993,-124.70174 L299.81982,-124.08247 L300.34033,-123.46404 L300.86087,-122.84646 L301.38138,-122.22977 L301.90192,-121.613976 L302.42242,-120.99912 L302.94293,-120.38524 L303.46347,-119.77235 L303.98398,-119.16047 L304.50452,-118.549644 L305.02502,-117.93989 L305.54553,-117.33124 L306.06607,-116.72372 L306.58658,-116.117355 L307.10712,-115.512184 L307.62762,-114.90822 L308.14816,-114.30549 L308.66867,-113.70403 L309.18918,-113.10387 L309.70972,-112.50502 L310.23022,-111.90752 L310.75076,-111.311386 L311.27127,-110.71665 L311.79178,-110.123344 L312.31232,-109.53149 L312.83282,-108.94109 L313.35336,-108.3522 L313.87387,-107.76483 L314.3944,-107.179 L314.91492,-106.59474 L315.43542,-106.01208 L315.95596,-105.43102 L316.47647,-104.8516 L316.997,-104.27384 L317.51752,-103.69776 L318.03802,-103.123375 L318.55856,-102.55071 L319.07907,-101.97979 L319.5996,-101.41063 L320.12012,-100.84325 L320.64066,-100.27766 L321.16116,-99.71389 L321.68167,-99.151955 L322.2022,-98.591866 L322.72272,-98.03365 L323.24326,-97.47732 L323.76376,-96.92288 L324.28427,-96.37036 L324.8048,-95.81978 L325.32532,-95.27113 L325.84586,-94.72445 L326.36636,-94.17974 L326.8869,-93.63701 L327.4074,-93.09628 L327.92792,-92.55756 L328.44846,-92.02087 L328.96896,-91.486206 L329.4895,-90.95358 L330.01,-90.42302 L330.53052,-89.894516 L331.05106,-89.368095 L331.57156,-88.84375 L332.0921,-88.321495 L332.6126,-87.80134 L333.13315,-87.28329 L333.65366,-86.76736 L334.17416,-86.25355 L334.6947,-85.74186 L335.2152,-85.23231 L335.73575,-84.72489 L336.25626,-84.21963 L336.77676,-83.71651 L337.2973,-83.215546 L337.8178,-82.716736 L338.33835,-82.22009 L338.85886,-81.72561 L339.3794,-81.2333 L339.8999,-80.74316 L340.4204,-80.25519 L340.94095,-79.7694 L341.46146,-79.28578 L341.982,-78.804344 L342.5025,-78.32508 L343.023,-77.848 L343.54355,-77.3731 L344.06406,-76.90038 L344.5846,-76.42984 L345.1051,-75.96148 L345.62564,-75.4953 L346.14615,-75.03129 L346.66666,-74.56946 L347.1872,-74.1098 L347.7077,-73.65232 L348.22824,-73.197014 L348.74875,-72.743866 L349.26926,-72.292885 L349.7898,-71.84407 L350.3103,-71.39741 L350.83084,-70.95291 L351.35135,-70.51056 L351.87186,-70.07036 L352.3924,-69.6323 L352.9129,-69.19639 L353.43344,-68.76261 L353.95395,-68.33096 L354.4745,-67.90144 L354.995,-67.474045 L355.5155,-67.04876 L356.03604,-66.62559 L356.55655,-66.20453 L357.0771,-65.78556 L357.5976,-65.36869 L358.1181,-64.95392 L358.63864,-64.54122 L359.15915,-64.1306 L359.6797,-63.72205 L360.2002,-63.315567 L360.72073,-62.91114 L361.24124,-62.508762 L361.76175,-62.108433 L362.2823,-61.710136 L362.8028,-61.313873 L363.32333,-60.919632 L363.84384,-60.527405 L364.36435,-60.137188 L364.8849,-59.74897 L365.4054,-59.362747 L365.92593,-58.97851 L366.44644,-58.596252 L366.96698,-58.215965 L367.4875,-57.83764 L368.008,-57.46127 L368.52853,-57.086845 L369.04904,-56.714363 L369.56958,-56.343807 L370.0901,-55.975178 L370.6106,-55.60846 L371.13113,-55.24365 L371.65164,-54.880733 L372.17218,-54.51971 L372.6927,-54.16057 L373.21323,-53.803295 L373.73373,-53.44789 L374.25424,-53.094337 L374.77478,-52.742634 L375.2953,-52.39277 L375.81583,-52.04473 L376.33633,-51.698517 L376.85684,-51.354115 L377.37738,-51.011513 L377.8979,-50.670708 L378.41843,-50.331688 L378.93893,-49.99445 L379.45947,-49.658978 L379.97998,-49.325264 L380.5005,-48.9933 L381.02103,-48.663082 L381.54153,-48.334595 L382.06207,-48.00783 L382.58258,-47.682785 L383.1031,-47.359447 L383.62363,-47.037804 L384.14413,-46.717854 L384.66467,-46.399582 L385.18518,-46.08298 L385.70572,-45.768044 L386.22623,-45.454758 L386.74673,-45.14312 L387.26727,-44.833115 L387.78778,-44.524742 L388.30832,-44.217983 L388.82883,-43.912838 L389.34933,-43.60929 L389.86987,-43.30734 L390.39038,-43.006966 L390.91092,-42.70817 L391.43143,-42.410942 L391.95197,-42.115273 L392.47247,-41.82115 L392.99298,-41.52857 L393.51352,-41.23752 L394.03403,-40.94799 L394.55457,-40.659977 L395.07507,-40.37347 L395.59558,-40.088463 L396.11612,-39.80494 L396.63663,-39.5229 L397.15717,-39.242332 L397.67767,-38.963226 L398.1982,-38.685577 L398.71872,-38.409374 L399.23923,-38.134613 L399.75977,-37.86128 L400.28027,-37.589367 L400.8008,-37.318867 L401.32132,-37.049774 L401.84183,-36.782078 L402.36237,-36.515774 L402.88287,-36.250847 L403.4034,-35.987293 L403.92392,-35.725105 L404.44446,-35.464275 L404.96497,-35.204792 L405.48547,-34.94665 L406.006,-34.689846 L406.52652,-34.43436 L407.04706,-34.180195 L407.56757,-33.92734 L408.08807,-33.675785 L408.6086,-33.425526 L409.12912,-33.17655 L409.64966,-32.928856 L410.17017,-32.68243 L410.6907,-32.43727 L411.2112,-32.193363 L411.73172,-31.950706 L412.25226,-31.709291 L412.77277,-31.469109 L413.2933,-31.230152 L413.8138,-30.992413 L414.33432,-30.755886 L414.85486,-30.520563 L415.37537,-30.286438 L415.8959,-30.053501 L416.4164,-29.821747 L416.93695,-29.591167 L417.45746,-29.361757 L417.97797,-29.133507 L418.4985,-28.906412 L419.019,-28.680462 L419.53955,-28.455654 L420.06006,-28.23198 L420.58057,-28.00943 L421.1011,-27.788 L421.6216,-27.567682 L422.14215,-27.348473 L422.66266,-27.13036 L423.1832,-26.913342 L423.7037,-26.697407 L424.2242,-26.482553 L424.74475,-26.268772 L425.26526,-26.056057 L425.7858,-25.8444 L426.3063,-25.633799 L426.8268,-25.424244 L427.34735,-25.215729 L427.86786,-25.008247 L428.3884,-24.801796 L428.9089,-24.596365 L429.42944,-24.391949 L429.94995,-24.188541 L430.47046,-23.986137 L430.991,-23.78473 L431.5115,-23.584314 L432.03204,-23.384884 L432.55255,-23.186432 L433.07306,-22.988953 L433.5936,-22.792439 L434.1141,-22.596888 L434.63464,-22.402292 L435.15515,-22.208645 L435.6757,-22.015942 L436.1962,-21.824175 L436.7167,-21.63334 L437.23724,-21.443434 L437.75775,-21.254448 L438.2783,-21.066376 L438.7988,-20.879215 L439.3193,-20.692957 L439.83984,-20.507599 L440.36035,-20.323133 L440.8809,-20.139555 L441.4014,-19.956858 L441.92194,-19.77504 L442.44244,-19.594093 L442.96295,-19.414011 L443.4835,-19.23479 L444.004,-19.056427 L444.52454,-18.878914 L445.04504,-18.702246 L445.56555,-18.526419 L446.0861,-18.351427 L446.6066,-18.177265 L447.12714,-18.003927 L447.64764,-17.831411 L448.16818,-17.65971 L448.6887,-17.48882 L449.2092,-17.318733 L449.72974,-17.149448 L450.25024,-16.980959 L450.77078,-16.813261 L451.2913,-16.646349 L451.8118,-16.480217 L452.33234,-16.314863 L452.85284,-16.150282 L453.37338,-15.986466 L453.8939,-15.823415 L454.41443,-15.66112 L454.93494,-15.49958 L455.45544,-15.33879 L455.97598,-15.178743 L456.4965,-15.019438 L457.01703,-14.8608675 L457.53754,-14.703028 L458.05804,-14.545916 L458.57858,-14.389526 L459.0991,-14.233855 L459.61963,-14.078898 L460.14014,-13.92465 L460.66068,-13.771109 L461.18118,-13.618268 L461.7017,-13.466125 L462.22223,-13.314673 L462.74274,-13.163912 L463.26328,-13.013835 L463.78378,-12.864439 L464.3043,-12.715719 L464.82483,-12.567672 L465.34534,-12.420294 L465.86588,-12.27358 L466.38638,-12.127526 L466.90692,-11.982131 L467.42743,-11.837387 L467.94794,-11.693294 L468.46848,-11.549845 L468.98898,-11.407038 L469.50952,-11.264868 L470.03003,-11.123332 L470.55054,-10.982427 L471.07108,-10.842148 L471.59158,-10.702492 L472.11212,-10.563455 L472.63263,-10.425034 L473.15317,-10.287224 L473.67368,-10.1500225 L474.19418,-10.013427 L474.71472,-9.877432 L475.23523,-9.742035 L475.75577,-9.607232 L476.27628,-9.47302 L476.79678,-9.339395 L477.31732,-9.206354 L477.83783,-9.073894 L478.35837,-8.942011 L478.87888,-8.810701 L479.3994,-8.679963 L479.91992,-8.549791 L480.44043,-8.420184 L480.96097,-8.291137 L481.48148,-8.162647 L482.002,-8.034713 L482.52252,-7.907328 L483.04303,-7.780492 L483.56357,-7.6542 L484.08408,-7.52845 L484.6046,-7.4032383 L485.12512,-7.278562 L485.64566,-7.154418 L486.16617,-7.030803 L486.68668,-6.9077144 L487.2072,-6.785149 L487.72772,-6.663104 L488.24826,-6.541576 L488.76877,-6.4205623 L489.28928,-6.30006 L489.8098,-6.1800656 L490.33032,-6.0605774 L490.85086,-5.9415917 L491.37137,-5.823106 L491.8919,-5.7051167 L492.4124,-5.587622 L492.93292,-5.4706187 L493.45346,-5.354104 L493.97397,-5.238075 L494.4945,-5.122529 L495.015,-5.0074635 L495.53552,-4.8928757 L496.05606,-4.778763 L496.57657,-4.665122 L497.0971,-4.551951 L497.6176,-4.439247 L498.13815,-4.3270073 L498.65866,-4.2152295 L499.17917,-4.103911 L499.6997,-3.9930491 L500.2202,-3.882641 L500.74075,-3.7726848 L501.26126,-3.6631773 L501.78177,-3.5541165 L502.3023,-3.4454997 L502.8228,-3.3373244 L503.34335,-3.2295883 L503.86386,-3.122289 L504.3844,-3.0154235 L504.9049,-2.9089901 L505.4254,-2.8029864 L505.94595,-2.6974094 L506.46646,-2.5922575 L506.987,-2.4875276 L507.5075,-2.383218 L508.028,-2.279326 L508.54855,-2.1758494 L509.06906,-2.072786 L509.5896,-1.9701337 L510.1101,-1.8678898 L510.63065,-1.7660524 L511.15115,-1.664619 L511.67166,-1.5635877 L512.1922,-1.4629561 L512.7127,-1.3627219 L513.2332,-1.2628833 L513.7538,-1.163438 L514.2743,-1.0643836 L514.7948,-0.96571827 L515.3153,-0.8674398 L515.8358,-0.7695461 L516.3564,-0.67203504 L516.8769,-0.5749046 L517.3974,-0.4781527 L517.9179,-0.38177726 L518.4384,-0.2857763 L518.959,-0.19014777 L519.4795,-0.09488967 L520,0" fill="none" stroke="pink" stroke-width="2"/>
</g>
<g>
<g>
<line stroke="black" stroke-width="1" x1="0" x2="0" y1="0" y2="10"/>
<line stroke="black" stroke-width="1" x1="104.10410410410411" x2="104.10410410410411" y1="0" y2="10"/>
<line stroke="black" stroke-width="1" x1="208.20820820820822" x2="208.20820820820822" y1="0" y2="10"/>
<line stroke="black" stroke-width="1" x1="312.3123123123123" x2="312.3123123123123" y1="0" y2="10"/>
<line stroke="black" stroke-width="1" x1="416.41641641641644" x2="416.41641641641644" y1="0" y2="10"/>
</g>
<line stroke="black" stroke-width="1" x1="0" x2="520" y1="0" y2="0"/>
<g>
<text font-size="12" text-anchor="middle" x="0" y="20">
0
</text>
<text font-size="12" text-anchor="middle" x="104.10410410410411" y="20">
200
</text>
<text font-size="12" text-anchor="middle" x="208.20820820820822" y="20">
400
</text>
<text font-size="12" text-anchor="middle" x="312.3123123123123" y="20">
600
</text>
<text font-size="12" text-anchor="middle" x="416.41641641641644" y="20">
800
</text>
</g>
<text font-size="12" text-anchor="middle" x="260" y="30">

</text>
</g>
<g>
<g>
<line stroke="black" stroke-width="1" x1="0" x2="-10" y1="-20.117128424070586" y2="-20.117128424070586"/>
<line stroke="black" stroke-width="1" x1="0" x2="-10" y1="-95.88332100809589" y2="-95.88332100809589"/>
<line stroke="black" stroke-width="1" x1="0" x2="-10" y1="-171.6495135921212" y2="-171.6495135921212"/>
<line stroke="black" stroke-width="1" x1="0" x2="-10" y1="-247.41570617614644" y2="-247.41570617614644"/>
<line stroke="black" stroke-width="1" x1="0" x2="-10" y1="-323.1818987601717" y2="-323.1818987601717"/>
</g>
<line stroke="black" stroke-width="1" x1="0" x2="0" y1="0" y2="-340"/>
<g>
<text dominant-baseline="middle" font-size="12" text-anchor="end" x="-15" y="-20.117128424070586">
0.4
</text>
<text dominant-baseline="middle" font-size="12" text-anchor="end" x="-15" y="-95.88332100809589">
0.8
</text>
<text dominant-baseline="middle" font-size="12" text-anchor="end" x="-15" y="-171.6495135921212">
1.2000000000000002
</text>
<text dominant-baseline="middle" font-size="12" text-anchor="end" x="-15" y="-247.41570617614644">
1.6
</text>
<text dominant-baseline="middle" font-size="12" text-anchor="end" x="-15" y="-323.1818987601717">
2
</text>
</g>
<text font-size="12" text-anchor="middle" transform="rotate(-90 -30 -170)" x="-30" y="-170">

</text>
</g>
</g>
</svg>